<svg width="1731" height="1615" viewBox="0 0 1731 1615" fill="none" xmlns="http://www.w3.org/2000/svg">
<path fill-rule="evenodd" clip-rule="evenodd" d="M791.087 1110.42C791.087 1110.42 874.34 1209.13 1005.31 1254.02C1136.28 1298.91 1505.33 1325.31 1677.89 944.5C1677.89 944.5 1531.26 1148.12 1340.71 1179.34C1340.71 1179.34 1537.51 1022.46 1608.21 912.113C1678.91 801.775 1716.01 670.668 1730.5 572.688C1692.26 766.068 1435.65 1021.14 1208.31 1110.56C1383.76 969.331 1742.94 509.013 1555.62 245.703C1620.59 580.72 1225.08 1096.57 791.087 1110.42ZM754.804 1441.56C748.671 1442.18 742.492 1442.72 736.256 1443.15C557.696 1455.38 88.053 1364.87 0 831.649C0 831.649 114.958 1134.96 342.438 1237.69C342.438 1237.69 149.206 975.955 97.838 814.522C46.468 653.084 44.0211 476.972 58.7001 349.782C41.7531 604.035 276.832 1008.38 530.782 1196.1C358.96 961.058 64.484 266.107 386.467 0C195.922 391.11 505.772 1151.62 1029.68 1328.4C1157.82 1300.01 1356.61 1294.27 1457.02 1328.78C1574.43 1369.14 1508.38 1514.68 1508.38 1514.68C1505.31 1437.62 1387.03 1403.07 1263.42 1420.37C1023.39 1453.95 1049.9 1624.94 764.829 1614.27C615.792 1608.7 353.999 1603.74 205.889 1457.2C386.474 1559.74 595.302 1506.19 754.804 1441.56Z" fill="black"/>
</svg>
